<svg xmlns="http://www.w3.org/2000/svg" viewBox="0 0 1746 858" preserveAspectRatio="xMidYMid" width="1746" height="858" xmlns:xlink="http://www.w3.org/1999/xlink" style="shape-rendering:auto;display:block;background-position-x:0%;background-position-y:0%;background-size:auto;background-origin:padding-box;background-clip:border-box;background:scroll rgb(189, 213, 237) none  repeat;width:1746px;height:858px;;animation:none"><g><defs><filter height="97.80" width="12" y="-6" x="-6" filterUnits="userSpaceOnUse" id="f-mzf97b0al6f"><feGaussianBlur result="blur1" stdDeviation="5"></feGaussianBlur>

    
<feMorphology result="dilate" in="SourceGraphic" radius="1.25" operator="dilate"></feMorphology>

    
<feComponentTransfer result="dark" in="dilate"><feFuncR slope="0.33" type="linear"></feFuncR>

    
<feFuncG slope="0.33" type="linear"></feFuncG>

    
<feFuncB slope="0.33" type="linear"></feFuncB></feComponentTransfer>

    
<feGaussianBlur result="blur2" in="dark" stdDeviation="2.50"></feGaussianBlur>

    
<feMerge><feMergeNode in="blur1"></feMergeNode>

      
<feMergeNode in="blur2"></feMergeNode>

      
<feMergeNode in="SourceGraphic"></feMergeNode></feMerge></filter></defs>
<path stroke-width="0.4" stroke="#3a454a" d="M311.79 0L311.79 858" style="stroke:rgb(58, 69, 74);;animation:none"></path>


<path filter="url(#f-mzf97b0al6f)" fill="#ffffff" d="M0 0L-1 85.80 A1 1 0 0 0 1 85.80 Z" transform="matrix(1,0,0,1,311.7900085449219,347.704833984375)" style="fill:rgb(255, 255, 255);transform:matrix(1, 0, 0, 1, 311.79, 347.705);;animation:none"></path>
<path stroke-width="0.4" stroke="#3a454a" d="M405.32 0L405.32 858" style="stroke:rgb(58, 69, 74);;animation:none"></path>


<path filter="url(#f-mzf97b0al6f)" fill="#ffffff" d="M0 0L-1 85.80 A1 1 0 0 0 1 85.80 Z" transform="matrix(1,0,0,1,405.32000732421875,138.9998779296875)" style="fill:rgb(255, 255, 255);transform:matrix(1, 0, 0, 1, 405.32, 139);;animation:none"></path>
<path stroke-width="0.4" stroke="#3a454a" d="M498.86 0L498.86 858" style="stroke:rgb(58, 69, 74);;animation:none"></path>


<path filter="url(#f-mzf97b0al6f)" fill="#ffffff" d="M0 0L-1 85.80 A1 1 0 0 0 1 85.80 Z" transform="matrix(1,0,0,1,498.8599853515625,53.216400146484375)" style="fill:rgb(255, 255, 255);transform:matrix(1, 0, 0, 1, 498.86, 53.2164);;animation:none"></path>
<path stroke-width="0.4" stroke="#3a454a" d="M592.39 0L592.39 858" style="stroke:rgb(58, 69, 74);;animation:none"></path>


<path filter="url(#f-mzf97b0al6f)" fill="#ffffff" d="M0 0L-1 85.80 A1 1 0 0 0 1 85.80 Z" transform="matrix(1,0,0,1,592.3900146484375,231.3774871826172)" style="fill:rgb(255, 255, 255);transform:matrix(1, 0, 0, 1, 592.39, 231.377);;animation:none"></path>
<path stroke-width="0.4" stroke="#3a454a" d="M685.93 0L685.93 858" style="stroke:rgb(58, 69, 74);;animation:none"></path>


<path filter="url(#f-mzf97b0al6f)" fill="#ffffff" d="M0 0L-1 85.80 A1 1 0 0 0 1 85.80 Z" transform="matrix(1,0,0,1,685.9299926757812,122.94564819335938)" style="fill:rgb(255, 255, 255);transform:matrix(1, 0, 0, 1, 685.93, 122.946);;animation:none"></path>
<path stroke-width="0.4" stroke="#3a454a" d="M779.46 0L779.46 858" style="stroke:rgb(58, 69, 74);;animation:none"></path>


<path filter="url(#f-mzf97b0al6f)" fill="#ffffff" d="M0 0L-1 85.80 A1 1 0 0 0 1 85.80 Z" transform="matrix(1,0,0,1,779.4600219726562,72.48948669433594)" style="fill:rgb(255, 255, 255);transform:matrix(1, 0, 0, 1, 779.46, 72.4895);;animation:none"></path>
<path stroke-width="0.4" stroke="#3a454a" d="M873 0L873 858" style="stroke:rgb(58, 69, 74);;animation:none"></path>


<path filter="url(#f-mzf97b0al6f)" fill="#ffffff" d="M0 0L-1 85.80 A1 1 0 0 0 1 85.80 Z" transform="matrix(1,0,0,1,873,-28.42279815673828)" style="fill:rgb(255, 255, 255);transform:matrix(1, 0, 0, 1, 873, -28.4228);;animation:none"></path>
<path stroke-width="0.4" stroke="#3a454a" d="M966.54 0L966.54 858" style="stroke:rgb(58, 69, 74);;animation:none"></path>


<path filter="url(#f-mzf97b0al6f)" fill="#ffffff" d="M0 0L-1 85.80 A1 1 0 0 0 1 85.80 Z" transform="matrix(1,0,0,1,966.5399780273438,775.4188842773438)" style="fill:rgb(255, 255, 255);transform:matrix(1, 0, 0, 1, 966.54, 775.419);;animation:none"></path>
<path stroke-width="0.4" stroke="#3a454a" d="M1060.07 0L1060.07 858" style="stroke:rgb(58, 69, 74);;animation:none"></path>


<path filter="url(#f-mzf97b0al6f)" fill="#ffffff" d="M0 0L-1 85.80 A1 1 0 0 0 1 85.80 Z" transform="matrix(1,0,0,1,1060.0699462890625,392.4273681640625)" style="fill:rgb(255, 255, 255);transform:matrix(1, 0, 0, 1, 1060.07, 392.427);;animation:none"></path>
<path stroke-width="0.4" stroke="#3a454a" d="M1153.61 0L1153.61 858" style="stroke:rgb(58, 69, 74);;animation:none"></path>


<path filter="url(#f-mzf97b0al6f)" fill="#ffffff" d="M0 0L-1 85.80 A1 1 0 0 0 1 85.80 Z" transform="matrix(1,0,0,1,1153.6099853515625,167.6681365966797)" style="fill:rgb(255, 255, 255);transform:matrix(1, 0, 0, 1, 1153.61, 167.668);;animation:none"></path>
<path stroke-width="0.4" stroke="#3a454a" d="M1247.14 0L1247.14 858" style="stroke:rgb(58, 69, 74);;animation:none"></path>


<path filter="url(#f-mzf97b0al6f)" fill="#ffffff" d="M0 0L-1 85.80 A1 1 0 0 0 1 85.80 Z" transform="matrix(1,0,0,1,1247.1400146484375,134.2682342529297)" style="fill:rgb(255, 255, 255);transform:matrix(1, 0, 0, 1, 1247.14, 134.268);;animation:none"></path>
<path stroke-width="0.4" stroke="#3a454a" d="M1340.68 0L1340.68 858" style="stroke:rgb(58, 69, 74);;animation:none"></path>


<path filter="url(#f-mzf97b0al6f)" fill="#ffffff" d="M0 0L-1 85.80 A1 1 0 0 0 1 85.80 Z" transform="matrix(1,0,0,1,1340.6800537109375,486.38494873046875)" style="fill:rgb(255, 255, 255);transform:matrix(1, 0, 0, 1, 1340.68, 486.385);;animation:none"></path>
<path stroke-width="0.4" stroke="#3a454a" d="M1434.21 0L1434.21 858" style="stroke:rgb(58, 69, 74);;animation:none"></path>


<path filter="url(#f-mzf97b0al6f)" fill="#ffffff" d="M0 0L-1 85.80 A1 1 0 0 0 1 85.80 Z" transform="matrix(1,0,0,1,1434.2099609375,539.3363037109375)" style="fill:rgb(255, 255, 255);transform:matrix(1, 0, 0, 1, 1434.21, 539.336);;animation:none"></path>
<g></g></g><!-- [ldio] generated by https://loading.io --></svg>